<svg xmlns="http://www.w3.org/2000/svg">

  <symbol viewBox="0 0 512 512" id="adjust">
    <path d="M8 256c0 136.966 111.033 248 248 248s248-111.034 248-248S392.966 8 256 8 8 119.033 8 256zm248 184V72c101.705 0 184 82.311 184 184 0 101.705-82.311 184-184 184z"/>
  </symbol>
  
  <symbol viewBox="0 0 448 512" id="angle-double-right">
    <path d="M224.3 273l-136 136c-9.4 9.4-24.6 9.4-33.9 0l-22.6-22.6c-9.4-9.4-9.4-24.6 0-33.9l96.4-96.4-96.4-96.4c-9.4-9.4-9.4-24.6 0-33.9L54.3 103c9.4-9.4 24.6-9.4 33.9 0l136 136c9.5 9.4 9.5 24.6.1 34zm192-34l-136-136c-9.4-9.4-24.6-9.4-33.9 0l-22.6 22.6c-9.4 9.4-9.4 24.6 0 33.9l96.4 96.4-96.4 96.4c-9.4 9.4-9.4 24.6 0 33.9l22.6 22.6c9.4 9.4 24.6 9.4 33.9 0l136-136c9.4-9.2 9.4-24.4 0-33.8z"/>
  </symbol>
  
  <symbol viewBox="0 0 256 512" id="angle-right">
    <path d="M224.3 273l-136 136c-9.4 9.4-24.6 9.4-33.9 0l-22.6-22.6c-9.4-9.4-9.4-24.6 0-33.9l96.4-96.4-96.4-96.4c-9.4-9.4-9.4-24.6 0-33.9L54.3 103c9.4-9.4 24.6-9.4 33.9 0l136 136c9.5 9.4 9.5 24.6.1 34z"/>
  </symbol>
  
  {{ if .Site.Params.Style.hasIconAsFootnoteReturnLink }}
    <symbol viewBox="0 0 320 512" id="caret-down">
      <path d="M31.3 192h257.3c17.8 0 26.7 21.5 14.1 34.1L174.1 354.8c-7.8 7.8-20.5 7.8-28.3 0L17.2 226.1C4.6 213.5 13.5 192 31.3 192z"/>
    </symbol>
  {{ end }}
  
  <symbol viewBox="0 0 448 512" id="hashtag">
    <path d="M440.667 182.109l7.143-40c1.313-7.355-4.342-14.109-11.813-14.109h-74.81l14.623-81.891C377.123 38.754 371.468 32 363.997 32h-40.632a12 12 0 0 0-11.813 9.891L296.175 128H197.54l14.623-81.891C213.477 38.754 207.822 32 200.35 32h-40.632a12 12 0 0 0-11.813 9.891L132.528 128H53.432a12 12 0 0 0-11.813 9.891l-7.143 40C33.163 185.246 38.818 192 46.289 192h74.81L98.242 320H19.146a12 12 0 0 0-11.813 9.891l-7.143 40C-1.123 377.246 4.532 384 12.003 384h74.81L72.19 465.891C70.877 473.246 76.532 480 84.003 480h40.632a12 12 0 0 0 11.813-9.891L151.826 384h98.634l-14.623 81.891C234.523 473.246 240.178 480 247.65 480h40.632a12 12 0 0 0 11.813-9.891L315.472 384h79.096a12 12 0 0 0 11.813-9.891l7.143-40c1.313-7.355-4.342-14.109-11.813-14.109h-74.81l22.857-128h79.096a12 12 0 0 0 11.813-9.891zM261.889 320h-98.634l22.857-128h98.634l-22.857 128z"/>
  </symbol>
  
  <symbol viewBox="0 0 512 512" id="search">
    <path d="M505 442.7L405.3 343c-4.5-4.5-10.6-7-17-7H372c27.6-35.3 44-79.7 44-128C416 93.1 322.9 0 208 0S0 93.1 0 208s93.1 208 208 208c48.3 0 92.7-16.4 128-44v16.3c0 6.4 2.5 12.5 7 17l99.7 99.7c9.4 9.4 24.6 9.4 33.9 0l28.3-28.3c9.4-9.4 9.4-24.6.1-34zM208 336c-70.7 0-128-57.2-128-128 0-70.7 57.2-128 128-128 70.7 0 128 57.2 128 128 0 70.7-57.2 128-128 128z"/>
  </symbol>
  
  <!-- Social stuff -->
  {{ if $.Site.Params.Social }}
    <!-- Get info about social platform and icon id from "social.json" -->
    {{ range .Site.Data.social }}
      {{ if and (or (index $.Site.Params.Social.Centralized .entry) (index $.Site.Params.Social.Decentralized .entry)) .icon }}
        {{ $iconId        := .icon.id }}
        {{ $svgEssential  := `(?:<svg (?:.*?)(viewBox="(?:.*?)")(?:.*?)>((?:.|\n)+?)(?:</svg>))` }}
        {{ $asSymbol      := printf `<symbol ${1} id="%s">${2}</symbol>` $iconId }}
        
        <!-- Get the required SVG file and insert here as a symbol -->
        {{ with (resources.Get (printf "svg/%s.svg" $iconId)) }}
          {{ .Content | replaceRE $svgEssential $asSymbol | safeHTML }}
        {{ end }}
      {{ end }}
    {{ end }}
  {{ end }}
  
</svg>